<svg width="181" height="181" viewBox="0 0 181 181" fill="none" xmlns="http://www.w3.org/2000/svg">
<path d="M135.75 60.3333V45.25C135.75 41.2496 134.161 37.4131 131.332 34.5845C128.504 31.7558 124.667 30.1667 120.667 30.1667H30.1667C26.1664 30.1667 22.3299 31.7558 19.5012 34.5845C16.6725 37.4131 15.0834 41.2496 15.0834 45.25V98.0417C15.0834 102.042 16.6725 105.879 19.5012 108.707C22.3299 111.536 26.1664 113.125 30.1667 113.125H90.5" stroke="#2F293C" stroke-width="5" stroke-linecap="round" stroke-linejoin="round"/>
<path d="M75.4166 143.292V113.427V137.183" stroke="#2F293C" stroke-width="5" stroke-linecap="round" stroke-linejoin="round"/>
<path d="M52.7916 143.292H90.5" stroke="#2F293C" stroke-width="5" stroke-linecap="round" stroke-linejoin="round"/>
<path d="M150.833 90.5H135.75C127.42 90.5 120.667 97.253 120.667 105.583V150.833C120.667 159.164 127.42 165.917 135.75 165.917H150.833C159.164 165.917 165.917 159.164 165.917 150.833V105.583C165.917 97.253 159.164 90.5 150.833 90.5Z" stroke="#2F293C" stroke-width="5" stroke-linecap="round" stroke-linejoin="round"/>
</svg>
